<?xml version="1.0" encoding="iso-8859-1"?>
<!-- Generator: Adobe Illustrator 18.0.0, SVG Export Plug-In . SVG Version: 6.00 Build 0)  -->
<!DOCTYPE svg PUBLIC "-//W3C//DTD SVG 1.1//EN" "http://www.w3.org/Graphics/SVG/1.1/DTD/svg11.dtd">
<svg version="1.1" id="Capa_1" xmlns="http://www.w3.org/2000/svg" xmlns:xlink="http://www.w3.org/1999/xlink" x="0px" y="0px"
	 viewBox="0 0 446.48 446.48" style="enable-background:new 0 0 446.48 446.48;" xml:space="preserve">
<g>
	<path style="fill:#41996B;" d="M335.54,432.69c-37.16,9.2-75.15,13.79-113.15,13.79s-75.99-4.59-113.15-13.79
		c34.35-70.92,42.01-138.97,42.01-185.56c0-10.51-0.39-19.93-0.95-28.04c-1.44-20.83-4.01-33.05-4.01-33.05h152.2
		c0,0-2.82,13.42-4.21,36.11C291.54,266.92,294.39,347.74,335.54,432.69z"/>
	<path style="fill:#3C8E61;" d="M294.28,222.15c-12.86,21.11-23.41,47.9-15.04,71.54c15.1,42.64-0.57,60.81-19.68,60.14
		c-5.54,15.16-20.09,25.98-37.17,25.98c-17.07,0-31.62-10.82-37.16-25.97c-18.32-0.44-32.64-18.78-17.99-60.15
		c8.78-24.8-3.26-53.07-16.94-74.6c-1.44-20.83-4.01-33.05-4.01-33.05h152.2C298.49,186.04,295.67,199.46,294.28,222.15z"/>
	<g>
		<path style="fill:#3C8E61;" d="M153.801,87.767L153.801,87.767c-29.028-5.663-53.457-25.152-65.427-52.196L75.149,5.69
			l101.629,42.047l13.318,48.953L153.801,87.767z"/>
		<path style="fill:#3C8E61;" d="M292.678,87.767L292.678,87.767c29.028-5.663,53.457-25.152,65.427-52.196L371.331,5.69
			L269.702,47.737L256.384,96.69L292.678,87.767z"/>
	</g>
	<path style="fill:#56BF8D;" d="M314.86,103.07c0,50.6-41.02,91.62-91.62,91.62c-0.28,0-0.57,0-0.85-0.01
		c-50.21-0.45-90.77-41.29-90.77-91.61s40.56-91.16,90.77-91.61c0.28-0.01,0.57-0.01,0.85-0.01
		C273.84,11.45,314.86,52.47,314.86,103.07z"/>
	<path style="fill:#56BF8D;" d="M261.95,313.25c0,21.85-17.71,39.56-39.56,39.56c-21.84,0-39.56-17.71-39.56-39.56
		c0-21.85,17.72-39.56,39.56-39.56C244.24,273.69,261.95,291.4,261.95,313.25z"/>
	<path style="fill:#4DAA7B;" d="M314.86,103.07c0,50.6-41.02,91.62-91.62,91.62c-0.28,0-0.57,0-0.85-0.01V11.46
		c0.28-0.01,0.57-0.01,0.85-0.01C273.84,11.45,314.86,52.47,314.86,103.07z"/>
	<path style="fill:#4DAA7B;" d="M261.95,313.25c0,21.85-17.71,39.56-39.56,39.56v-79.12C244.24,273.69,261.95,291.4,261.95,313.25z"
		/>
	<path style="fill:#1C4C30;" d="M261.95,288.25c0,21.85-17.71,39.56-39.56,39.56c-21.84,0-39.56-17.71-39.56-39.56
		c0-21.85,17.72-39.56,39.56-39.56C244.24,248.69,261.95,266.4,261.95,288.25z"/>
	<path style="fill:#4DAA7B;" d="M323.24,145.42c0,3.79-0.68,7.51-1.97,11.01s-3.21,6.77-5.68,9.64
		c-15.8,18.35-49.53,63.39-36.35,100.62c17,48-5,65-27,59c-7.5-2.04-13.25-5.25-17.58-8.59c-3.58-2.76-7.95-4.04-12.27-3.85
		c-3.75,0.17-7.45,1.45-10.57,3.85c-4.33,3.34-10.08,6.55-17.58,8.59c-22,6-44-11-27-59c13.18-37.23-20.55-82.27-36.35-100.62
		c-4.95-5.74-7.65-13.08-7.65-20.65c0-8.77,3.55-16.7,9.29-22.44c5.74-5.74,13.67-9.29,22.44-9.29c4.03,0,8.02,0.51,11.88,1.51
		c3.87,1,7.61,2.49,11.13,4.43c13.82,7.66,29.1,11.55,44.41,11.68c0.28,0.01,0.57,0.01,0.85,0.01c15.59,0,31.18-3.89,45.26-11.69
		c3.52-1.94,7.26-3.43,11.13-4.43c3.86-1,7.85-1.51,11.88-1.51C309.04,113.69,323.24,127.89,323.24,145.42z"/>
	<path style="fill:#56BF8D;" d="M323.24,145.42c0,3.79-0.68,7.51-1.97,11.01s-3.21,6.77-5.68,9.64
		c-15.8,18.35-49.53,63.39-36.35,100.62c17,48-5,65-27,59c-7.5-2.04-13.25-5.25-17.58-8.59c-3.58-2.76-7.95-4.04-12.27-3.85V131.31
		c0.28,0.01,0.57,0.01,0.85,0.01c15.59,0,31.18-3.89,45.26-11.69c3.52-1.94,7.26-3.43,11.13-4.43c3.86-1,7.85-1.51,11.88-1.51
		C309.04,113.69,323.24,127.89,323.24,145.42z"/>
	<g>
		<path style="fill:#B23D50;" d="M189.89,175.69l-6.34,0.87c-12.77,1.77-24.72-6.64-27.37-19.25l-3.29-15.62l10.5,9.65l16.83,15.47
			L189.89,175.69z"/>
		<path style="fill:#B23D50;" d="M293.59,141.69l-37,34l6.34,0.874c12.765,1.761,24.718-6.649,27.372-19.258L293.59,141.69z"/>
	</g>
	<path style="fill:#D14253;" d="M211.25,66.767L223.24,46l11.99,20.767c5.329,9.23-1.332,20.767-11.99,20.767h0
		C212.582,87.535,205.921,75.997,211.25,66.767z"/>
	<g>
		<path style="fill:#3C8E61;" d="M211.971,277.808c-6.637-6.637-17.399-6.637-24.036,0c-6.637,6.637-6.637,17.399,0,24.036"/>
		<path style="fill:#3C8E61;" d="M258.544,301.844c6.637-6.637,6.637-17.399,0-24.036c-6.637-6.637-17.399-6.637-24.036,0"/>
	</g>
	<path style="fill:#D14253;" d="M211.25,20.767L223.24,0l11.99,20.767c5.329,9.23-1.332,20.767-11.99,20.767h0
		C212.582,41.535,205.921,29.997,211.25,20.767z"/>
	<g>
		<path style="fill:#1C4C30;" d="M191.1,289.826L191.1,289.826c0,5.05,4.094,9.144,9.144,9.144h9.144v-9.144
			c0-5.05-4.094-9.144-9.144-9.144h0C195.194,280.682,191.1,284.776,191.1,289.826z"/>
		<path style="fill:#1C4C30;" d="M255.38,289.826L255.38,289.826c0,5.05-4.094,9.144-9.144,9.144h-9.144v-9.144
			c0-5.05,4.094-9.144,9.144-9.144h0C251.286,280.682,255.38,284.776,255.38,289.826z"/>
	</g>
</g>
<g>
</g>
<g>
</g>
<g>
</g>
<g>
</g>
<g>
</g>
<g>
</g>
<g>
</g>
<g>
</g>
<g>
</g>
<g>
</g>
<g>
</g>
<g>
</g>
<g>
</g>
<g>
</g>
<g>
</g>
</svg>
